In Barcelona| Valére is very attached to her French grandmother Marie Tasso and likes to stay with her. While discussing sex with Val| Marie advises her that it would be important to jot her life experience down and Val decides to write a diary. Val recalls her promiscuous love life and her lovers since her first sexual experience when she was fifteen year-old. When Val loses her job in a downsizing| she is simultaneously informed that Marie had had a heart attack and she visits her granny who dies. Val looks for a job and when she is interviewed by an executive called Jaime| and falls in love for the first time. However Jaime is not good in bed. They move in together to a magnificent apartment and Val believes she has found the man of her life. Val gets a job with a gay Italian called Harry at a fashion house but Jaime becomes jealous and changes his behavior. Val decides to leave Jaime when she gets pregnant and he does not recognize the baby as his own. 


Size:	1.44 GB

Genres:	Drama , Romance

Actors:	Belén Fabra , Leonardo Sbaraglia , Llum Barrera , Geraldine Chaplin , Ángela Molina , Pedro Gutiérrez , José Chaves , Jorge Yaman , Antonio Garrido , Jaume García Arija , David Vert , Javier Coromina , Judith Diakhate , Natasha Yarovenko , Laura De Pedro

Director:	Christian Molina

Year:	2008




General
Complete name : Diary.of.a.Sex.Addict.2008.480p.BRRip.XviD.AC3-AsAasa-doasa-480p.avi
Format : AVI
Format/Info : Audio Video Interleave
File size : 1.44 GiB
Duration : 1h 41mn
Overall bit rate : 2 036 Kbps
Writing application : VirtualDubMod 1.6.0.0 SURROUND (build 2560/release)
Writing library : VirtualDubMod build 2560/release

Video
ID : 0
Format : MPEG-4 Visual
Format profile : Advanced Simple@L5
Format settings, BVOP : 2
Format settings, QPel : No
Format settings, GMC : No warppoints
Format settings, Matrix : Default (H.263)
Muxing mode : Packed bitstream
Codec ID : XVID
Codec ID/Hint : XviD
Duration : 1h 41mn
Bit rate : 1 643 Kbps
Width : 720 pixels
Height : 304 pixels
Display aspect ratio : 2.35:1
Frame rate : 24.000 fps
Color space : YUV
Chroma subsampling : 4:2:0
Bit depth : 8 bits
Scan type : Progressive
Compression mode : Lossy
Bits/(Pixel*Frame) : 0.313
Stream size : 1.16 GiB (81%)
Writing library : XviD 63

Audio
ID : 1
Format : AC-3
Format/Info : Audio Coding 3
Mode extension : CM (complete main)
Codec ID : 2000
Duration : 1h 41mn
Bit rate mode : Constant
Bit rate : 384 Kbps
Channel(s) : 6 channels
Channel positions : Front: L C R, Side: L R, LFE
Sampling rate : 48.0 KHz
Bit depth : 16 bits
Compression mode : Lossy
Stream size : 278 MiB (19%)
Alignment : Split accross interleaves
Interleave, duration : 42 ms (1.00 video frame)
Interleave, preload duration : 500 ms 